# xmcd
#
# Track frame offsets:
#	150
#	14556
#	38423
#	45697
#	63281
#	91733
#	99637
#	122814
#	144159
#	192611
#	211908
#	238957
#	276537
#
# Disc length: 4165 seconds
#
# Revision: 0
# Processed by: cddbd v1.5.2PL0 Copyright (c) Steve Scherf et al.
# Submitted via: EZCDAudioConverter 2.1.7.1
#
DISCID=bb10430d
DTITLE=Quintessence - Move Into The Light 2/2
DYEAR=1900
DGENRE=
TTITLE0=Prisms
TTITLE1=Twilight Zones
TTITLE2=Maha Mantra
TTITLE3=Only Love
TTITLE4=St. Pancras [Live]
TTITLE5=Infinitum
TTITLE6=Jesus, Buddha, Moses, Guaranga [Live]
TTITLE7=Dive Deep
TTITLE8=Dance For The One
TTITLE9=Brahman
TTITLE10=The Seer
TTITLE11=Epitaph For Tomorrow
TTITLE12=Sri Ram Chant
EXTD=
EXTT0=
EXTT1=
EXTT2=
EXTT3=
EXTT4=
EXTT5=
EXTT6=
EXTT7=
EXTT8=
EXTT9=
EXTT10=
EXTT11=
EXTT12=
PLAYORDER=
